# xmcd CD database file generated by OrangeCD 6.4
#
# Track frame offsets:
#	150
#	17087
#	35200
#	55210
#	68640
#	87727
#	127092
#	139402
#	151205
#	161337
#	172542
#	188357
#	199162
#	211045
#
# Disc length: 2994 seconds
#
# Revision: 2
# Processed by: cddbd v1.5.2PL0 Copyright (c) Steve Scherf et al.
# Submitted via: OrangeCD 6.4
#
DISCID=ba0bb00e
DTITLE=Various Artist - Alone With The Blues
DYEAR=1900
DGENRE=Blues
TTITLE0=John Lee Hooker - Mama You Got A Daughter
TTITLE1=Sonny Terry and Brown McGhee - I'm A Stranger Here
TTITLE2=Lightinin' Hopkins - Leave Jike Mary Alone
TTITLE3=Ray Charles - Alone In THe City
TTITLE4=Hownlin Wolf - House Rockin Boogie
TTITLE5=Ike Turner - All THe Blues, All The Time
TTITLE6=Elmore James - Blues Before Sunrise
TTITLE7=Big Bill Dotson - Sittin' and Thinkin'
TTITLE8=Jack Dupree - Me And My Mule
TTITLE9=Leadbelly With Josh White - I've Got A Pretty Flower
TTITLE10=Memphis Slim - Three Woman Blues
TTITLE11=Smokey Hogg - Good Morning Little School Girl
TTITLE12=Muddy Walters - Dissatisfied
TTITLE13=Jim Rushing - Got Some More You Fool
EXTD=
EXTT0=
EXTT1=
EXTT2=
EXTT3=
EXTT4=
EXTT5=
EXTT6=
EXTT7=
EXTT8=
EXTT9=
EXTT10=
EXTT11=
EXTT12=
EXTT13=
PLAYORDER=
